<?xml version="1.0" encoding="UTF-8"?>
<svg id="Laag_1" xmlns="http://www.w3.org/2000/svg" version="1.1" viewBox="0 0 28 44.7">
  <!-- Generator: Adobe Illustrator 30.9.0, SVG Export Plug-In . SVG Version: 2.1.4 Build 72)  -->
  <defs>
    <style>
      .st0 {
        fill: #7c9abf;
      }

      .st1 {
        fill: #243160;
      }

      .st2 {
        isolation: isolate;
      }
    </style>
  </defs>
  <path class="st1" d="M7.7,22.4l-2.5,4.2c-.8,1.3-2.5,1.7-3.8,1-1.3-.8-1.8-2.5-1-3.8l5.1-8.5c1.5-2.5,4.2-4.1,7.2-4.1h2.6c2.9,0,5.7,1.5,7.2,4.1l5.1,8.5c.8,1.3.4,3-1,3.8-1.3.8-3,.4-3.8-1l-2.5-4.2v19.5c0,1.5-1.2,2.8-2.8,2.8s-2.8-1.2-2.8-2.8v-11.2h-1.4v11.2c0,1.5-1.2,2.8-2.8,2.8s-2.8-1.2-2.8-2.8v-19.5Z"/>
  <g class="st2">
    <circle class="st0" cx="14" cy="4.2" r="4.2"/>
  </g>
</svg>